<svg width="25" height="24" viewBox="0 0 25 24" fill="none" xmlns="http://www.w3.org/2000/svg">
<g id="icon / jam-icons / outline &#38; logos / youtube">
<path id="Vector" d="M18.6479 5.01699H6.98094C4.69094 5.01699 2.83594 6.85199 2.83594 9.11599V14.884C2.83594 17.148 4.69194 18.984 6.98094 18.984H18.6479C20.9379 18.984 22.7929 17.148 22.7929 14.884V9.11599C22.7929 6.85199 20.9369 5.01599 18.6479 5.01599V5.01699ZM15.8449 12.28L10.3879 14.855C10.3547 14.871 10.3179 14.8784 10.281 14.8763C10.2441 14.8743 10.2083 14.863 10.177 14.8434C10.1456 14.8239 10.1198 14.7967 10.1017 14.7645C10.0837 14.7322 10.0742 14.6959 10.0739 14.659V9.34999C10.0746 9.31286 10.0847 9.27651 10.1032 9.24432C10.1217 9.21212 10.148 9.18513 10.1798 9.16587C10.2115 9.1466 10.2476 9.13568 10.2847 9.13413C10.3218 9.13258 10.3587 9.14044 10.3919 9.15699L15.8499 11.892C15.8863 11.9101 15.9168 11.9381 15.9379 11.9728C15.9591 12.0075 15.97 12.0474 15.9695 12.0881C15.969 12.1287 15.957 12.1683 15.935 12.2025C15.913 12.2366 15.8817 12.2638 15.8449 12.281V12.28Z" fill="#E2E8F0"/>
</g>
</svg>
